<?xml version="1.0" encoding="UTF-8"?>
<svg version="1.1" xmlns="http://www.w3.org/2000/svg" width="866" height="581">
<path d="M0 0 C0.83797119 0.00359528 1.67594238 0.00719055 2.53930664 0.01089478 C3.41727402 0.01074875 4.29524139 0.01060272 5.19981384 0.01045227 C8.11630685 0.01115172 11.03273683 0.01894561 13.94921875 0.02676392 C15.96561142 0.02862798 17.98200454 0.03005194 19.99839783 0.03105164 C25.31671388 0.03487772 30.6350028 0.04470878 35.95330811 0.05575562 C41.37576938 0.06596779 46.79823502 0.07054884 52.22070312 0.07559204 C62.86850153 0.08633097 73.51627976 0.10340847 84.1640625 0.12442017 C84.43951401 0.8078952 84.71496552 1.49137024 84.99876404 2.19555664 C98.03361699 34.53800462 111.07448088 66.87791987 124.16796875 99.19668579 C127.31197076 106.95752072 130.45296135 114.71957467 133.59432983 122.48147583 C134.65753401 125.1082905 135.72094649 127.73502076 136.78442383 130.36172485 C140.00156759 138.30816778 143.21753151 146.25507975 146.42829895 154.20410156 C155.5876828 176.88002843 164.81572909 199.52568392 174.1640625 222.12442017 C180.41351937 214.38860599 186.59136386 206.61053619 192.6015625 198.68692017 C197.44320328 192.30865419 202.42178658 186.06218013 207.49536133 179.86734009 C211.66824794 174.76306771 215.70720049 169.57194051 219.70703125 164.33145142 C222.30808886 160.9258782 224.95102492 157.55405867 227.6015625 154.18692017 C228.06151611 153.60249146 228.52146973 153.01806274 228.99536133 152.41592407 C230.3844896 150.65174331 231.77423648 148.88805127 233.1640625 147.12442017 C239.18802487 139.47624197 245.1908674 131.81233839 251.1640625 124.12442017 C256.69856693 117.00112739 262.2571441 109.89745325 267.83740234 102.80996704 C270.11492456 99.9163319 272.38930257 97.02022694 274.6640625 94.12442017 C275.5807148 92.95774221 276.49738145 91.79107553 277.4140625 90.62442017 C278.0946875 89.75817017 278.0946875 89.75817017 278.7890625 88.87442017 C293.9140625 69.62442017 293.9140625 69.62442017 295.28833008 67.87539673 C296.20749563 66.70552001 297.12660345 65.53559793 298.0456543 64.3656311 C300.29862344 61.4977086 302.55249973 58.63051026 304.80859375 55.76504517 C310.55295399 48.46632863 316.26549973 41.14350891 321.96313477 33.80825806 C333.67947363 18.73153107 333.67947363 18.73153107 336.62741089 15.20300293 C338.31529853 13.02233703 338.31529853 13.02233703 339.868927 9.96405029 C342.46790394 5.45914115 345.20892948 1.11981003 350.33554077 -0.60700798 C356.81581703 -1.73117886 363.37765095 -1.36619273 369.921875 -1.14511108 C372.0374484 -1.12083426 374.15309539 -1.1023435 376.26876831 -1.08937073 C381.81096721 -1.03996461 387.34866648 -0.9124912 392.88909912 -0.76821899 C398.55305102 -0.63471628 404.21773743 -0.57575086 409.8828125 -0.51034546 C420.97852903 -0.37133542 432.07092024 -0.14976386 443.1640625 0.12442017 C441.73471287 10.09424908 439.89011972 19.95692159 437.92138672 29.83023071 C437.59480995 31.47880635 437.26848068 33.12743104 436.94237614 34.77610016 C436.05677615 39.24983414 435.16779597 43.72289047 434.27824664 48.1958406 C433.32774539 52.97861209 432.38054284 57.76203685 431.43299866 62.5453949 C429.81270848 70.72278536 428.19057286 78.89980781 426.56710815 87.0765686 C424.03495959 99.83026566 421.50635453 112.58466367 418.97875977 125.33926392 C418.7695043 126.39519155 418.56024884 127.45111918 418.3446523 128.53904462 C417.49947647 132.80396777 416.65432046 137.06889485 415.80922204 141.33383334 C414.75288917 146.66480158 413.69644435 151.99574759 412.63973427 157.32664108 C407.24477742 184.54327913 401.86259971 211.76236186 396.51171875 238.98770142 C396.29827285 240.07360679 396.29827285 240.07360679 396.08051491 241.18144965 C393.34563116 255.09539276 390.61393226 269.00995911 387.88556385 282.92518139 C386.9703752 287.59170471 386.05425381 292.25804463 385.13796806 296.92435265 C384.53481495 299.99815266 383.93312537 303.07223633 383.33155823 306.14634705 C381.0407577 317.82726075 378.64930852 329.48331679 376.1640625 341.12442017 C377.39181165 340.18615417 378.61955888 339.24788566 379.8473053 338.30961609 C380.53100724 337.78711808 381.21470919 337.26462008 381.91912937 336.7262888 C387.75788038 332.26400337 393.59360401 327.7980443 399.4140625 323.31192017 C404.22870516 319.60416143 409.05572754 315.91317362 413.89526367 312.23794556 C415.74133977 310.82876816 417.58009228 309.40994462 419.41137695 307.9815979 C426.96089154 302.12054747 426.96089154 302.12054747 431.19140625 299.85879517 C435.84593135 297.15032008 439.22392126 294.76479422 441.0544281 289.62384033 C441.83084611 286.4490188 442.46184926 283.27224495 443.0546875 280.05801392 C443.29740891 278.83922043 443.54013031 277.62042694 443.79020691 276.36470032 C444.31849787 273.70147859 444.83902158 271.03795119 445.34786987 268.37106323 C446.18264661 264.00513604 447.05535778 259.64726169 447.93383789 255.28994751 C449.17167441 249.13830627 450.40094203 242.98505968 451.61914062 236.82949829 C451.77137368 236.06040068 451.92360674 235.29130306 452.08045292 234.49889946 C452.86713575 230.52251143 453.6524141 226.54584836 454.43676758 222.56900024 C455.21204811 218.63927699 455.99100412 214.71029705 456.7722683 210.78175926 C457.06597871 209.30081001 457.3582301 207.8195706 457.64898109 206.33803749 C458.04940658 204.29778814 458.45445257 202.25850847 458.8605957 200.21939087 C459.08898636 199.06252274 459.31737701 197.9056546 459.5526886 196.71372986 C460.1640625 194.12442017 460.1640625 194.12442017 461.1640625 193.12442017 C462.6615753 193.03823363 464.16316992 193.02195684 465.66311646 193.03349304 C467.12196762 193.04048721 467.12196762 193.04048721 468.61029053 193.04762268 C469.68651672 193.05757767 470.76274292 193.06753265 471.87158203 193.07778931 C474.2089114 193.09057198 476.54624267 193.10301174 478.88357544 193.11515808 C480.13125828 193.12307436 481.37894112 193.13099064 482.66443253 193.1391468 C489.95523737 193.17751139 497.24614825 193.16973083 504.53703523 193.16918766 C512.24916601 193.16945143 519.96048497 193.18581199 527.67236328 193.25112915 C534.45614213 193.30845745 541.23840442 193.31267208 548.02236557 193.28643608 C550.60014979 193.28520674 553.17800855 193.30154086 555.75555801 193.33635139 C571.65786715 193.53960269 581.98654046 192.6931702 594.1640625 182.12442017 C595.98175443 180.93416275 597.81885666 179.77203521 599.6875 178.66348267 C600.50089844 178.17234985 601.31429687 177.68121704 602.15234375 177.17520142 C602.93996094 176.7046936 603.72757813 176.23418579 604.5390625 175.74942017 C605.75529297 175.00885376 605.75529297 175.00885376 606.99609375 174.25332642 C623.00458386 164.64823235 623.00458386 164.64823235 632.1640625 166.12442017 C635.06135118 167.35730896 636.56089677 168.34892137 638.4765625 170.81192017 C639.71760789 174.98634558 640.03196815 179.00809852 638.37109375 183.05801392 C636.56626722 186.27350945 634.38813985 189.19297152 632.1640625 192.12442017 C633.19998535 192.21940796 634.2359082 192.31439575 635.30322266 192.41226196 C674.49316375 196.05315271 674.49316375 196.05315271 692.1640625 201.12442017 C692.92412598 201.33260376 693.68418945 201.54078735 694.46728516 201.75527954 C712.15320718 206.68172022 729.14996404 215.21660734 743.1640625 227.12442017 C744.0921875 227.89141235 745.0203125 228.65840454 745.9765625 229.44863892 C768.02018368 248.46126218 778.67411746 275.03299471 781.8515625 303.49942017 C784.88158225 345.85657126 774.3498232 387.65164834 746.62109375 420.38223267 C713.33641732 457.52983657 665.2874211 475.6131321 616.1640625 479.12442017 C608.14517829 479.4506409 600.11734125 479.35926713 592.09375 479.31973267 C589.83261237 479.31599241 587.5714731 479.31315024 585.31033325 479.31115723 C579.42176669 479.30360043 573.53330222 479.28402237 567.64477539 479.26174927 C561.61085388 479.24111733 555.57691553 479.23211879 549.54296875 479.22207642 C537.74995568 479.20076726 525.95701765 479.16673009 514.1640625 479.12442017 C514.05351028 479.73973099 513.94295807 480.35504181 513.82905579 480.98899841 C509.97693283 502.32763468 505.68337985 523.56637883 501.3515625 544.81192017 C498.9796875 556.46504517 496.6078125 568.11817017 494.1640625 580.12442017 C457.5340625 580.12442017 420.9040625 580.12442017 383.1640625 580.12442017 C401.59666425 486.89285478 401.59666425 486.89285478 409.390625 448.03067017 C409.90171563 445.48124442 410.4127936 442.93181613 410.92385864 440.38238525 C413.15723068 429.24315837 415.39240185 418.10430191 417.63406181 406.96673965 C418.55890613 402.36894835 419.48148253 397.77070398 420.40351486 393.17234802 C420.83418016 391.02736986 421.26588771 388.88260067 421.69868851 386.73805237 C422.28903627 383.81250757 422.8758968 380.8862842 423.46191406 377.95986938 C423.63625284 377.10052984 423.81059162 376.2411903 423.99021339 375.35581017 C424.61304437 372.23098135 425.1640625 369.31944938 425.1640625 366.12442017 C424.1946875 366.92363892 423.2253125 367.72285767 422.2265625 368.54629517 C414.64303543 374.76923984 406.97868092 380.83063502 399.09765625 386.67227173 C394.53962387 390.06186319 390.0808142 393.55307141 385.6640625 397.12442017 C379.98470742 401.71302338 374.20223486 406.13471853 368.34448242 410.49258423 C363.33854452 414.22403187 358.39636885 418.03026459 353.4765625 421.87442017 C330.66893451 439.68122061 307.49048357 457.00480689 284.1640625 474.12442017 C284.26541504 474.68202026 284.36676758 475.23962036 284.47119141 475.81411743 C288.02208983 495.93518621 287.48134359 516.1504879 275.8125 533.83145142 C275.26851563 534.5881311 274.72453125 535.34481079 274.1640625 536.12442017 C273.57882812 536.95328735 272.99359375 537.78215454 272.390625 538.63613892 C259.37608011 555.980012 240.94858947 563.98296382 220.0390625 566.99942017 C205.76758844 567.95085177 188.81515519 563.57060749 177.27734375 555.06582642 C175.15699289 553.8389643 175.15699289 553.8389643 172.828125 554.88174438 C170.19645898 556.10930854 167.85523136 557.47784253 165.42578125 559.06582642 C164.53044678 559.64558228 163.6351123 560.22533813 162.71264648 560.82266235 C161.29640991 561.74546997 161.29640991 561.74546997 159.8515625 562.68692017 C153.02535076 567.08363573 146.18466146 571.40183934 139.1015625 575.37442017 C138.46629639 575.73221558 137.83103027 576.09001099 137.17651367 576.45864868 C130.65000346 580.06715379 125.63873562 582.00618741 118.1640625 581.12442017 C115.26677382 579.89153137 113.76722823 578.89991896 111.8515625 576.43692017 C110.28133474 571.15524497 110.43677917 567.57731491 112.86328125 562.72988892 C114.9897769 559.20128233 117.52856406 556.2557302 120.3515625 553.24942017 C120.83278564 552.73548706 121.31400879 552.22155396 121.80981445 551.69204712 C128.61247403 544.4649932 135.60169362 537.55661953 143.1640625 531.12442017 C144.41177254 530.05577649 145.65914526 528.98673891 146.90625 527.91738892 C147.52097168 527.39040405 148.13569336 526.86341919 148.76904297 526.32046509 C149.45957764 525.72842285 149.45957764 525.72842285 150.1640625 525.12442017 C149.81472656 523.88047485 149.46539062 522.63652954 149.10546875 521.35488892 C143.39286832 500.65165855 143.06140881 482.06424572 152.54296875 462.24160767 C153.96933071 459.76199206 155.49456086 457.44668903 157.1640625 455.12442017 C157.74929687 454.29555298 158.33453125 453.46668579 158.9375 452.61270142 C171.21937466 436.24522355 188.32561737 428.210712 208.0625 424.59317017 C224.4426156 422.47960686 241.95993154 428.28975253 256.1640625 436.12442017 C256.6266748 435.74221313 257.08928711 435.3600061 257.56591797 434.96621704 C267.08084992 427.10841982 276.59772792 419.26134029 286.31640625 411.65567017 C287.47400469 410.74947938 288.63155544 409.84322767 289.7890625 408.93692017 C290.65917969 408.25605347 290.65917969 408.25605347 291.546875 407.56143188 C297.06225161 403.23198089 302.50048788 398.80970653 307.92236328 394.36392212 C308.56286621 393.84015991 309.20336914 393.31639771 309.86328125 392.77676392 C310.42877686 392.31262085 310.99427246 391.84847778 311.5769043 391.37026978 C313.05032364 390.21370018 314.60552373 389.16344601 316.1640625 388.12442017 C299.3340625 387.79442017 282.5040625 387.46442017 265.1640625 387.12442017 C266.2890578 375.87446716 266.2890578 375.87446716 267.38285828 370.32200623 C267.75055077 368.43753784 267.75055077 368.43753784 268.12567139 366.51499939 C268.39578819 365.15537845 268.66599377 363.79577515 268.9362793 362.43618774 C269.22265379 360.97771915 269.50861725 359.51916979 269.79420471 358.06054688 C270.56725717 354.11828015 271.34598668 350.17715424 272.12573981 346.2362082 C272.94846487 342.07271802 273.76578781 337.90816754 274.58369446 333.74372864 C276.13822051 325.8329219 277.6973854 317.92303714 279.25830823 310.01349038 C281.18314158 300.25889181 283.10246924 290.50321161 285.02148438 280.74746704 C285.70291244 277.28332349 286.38436821 273.81918538 287.06587219 270.35505676 C287.315026 269.0885723 287.315026 269.0885723 287.56921321 267.79650229 C288.69007866 262.09985584 289.81260917 256.40353925 290.93595886 250.7073822 C292.25767893 244.00513219 293.5766865 237.3023552 294.89229208 230.59890217 C295.61084571 226.9380739 296.3308855 223.277549 297.0538063 219.61758041 C297.77407148 215.97061417 298.49067244 212.32294587 299.20463717 208.67474115 C299.47095521 207.31722674 299.73856736 205.95996548 300.00756395 204.6029793 C300.37575343 202.74453877 300.73882253 200.88508599 301.10163879 199.02558899 C301.30773175 197.97785655 301.51382471 196.93012411 301.72616291 195.8506422 C302.26979065 192.9263852 302.26979065 192.9263852 302.1640625 189.12442017 C301.81327637 189.57543091 301.46249023 190.02644165 301.10107422 190.49111938 C300.60365723 191.13065552 300.10624023 191.77019165 299.59375 192.42910767 C299.03405518 193.14872681 298.47436035 193.86834595 297.89770508 194.60977173 C296.64237891 196.22373896 295.38700667 197.83767036 294.1315918 199.4515686 C290.92130693 203.57867858 287.71164818 207.70627082 284.50390625 211.83535767 C278.80166557 219.1739891 273.08867515 226.50348104 267.34033203 233.80606079 C261.85144198 240.78430822 256.40914577 247.79881177 250.96240234 254.80996704 C248.03106887 258.5825765 245.09747052 262.35342372 242.1640625 266.12442017 C240.99738456 267.6244114 239.8307179 269.12441141 238.6640625 270.62442017 C226.99739583 285.62442017 215.33072917 300.62442017 203.6640625 315.62442017 C203.0855957 316.36820923 202.50712891 317.11199829 201.91113281 317.87832642 C200.75441236 319.36544606 199.59751381 320.85242721 198.44042969 322.33926392 C195.37004665 326.28516555 192.30356482 330.23402626 189.2421875 334.18692017 C188.60152344 335.01320923 187.96085937 335.83949829 187.30078125 336.69082642 C186.06787702 338.28109419 184.83605878 339.87220468 183.60546875 341.46426392 C183.05246094 342.17711548 182.49945313 342.88996704 181.9296875 343.62442017 C181.44274414 344.25348267 180.95580078 344.88254517 180.45410156 345.53067017 C177.58335645 349.07726822 177.58335645 349.07726822 175.02536011 349.3649292 C174.1415567 349.36048798 173.2577533 349.35604675 172.34716797 349.35147095 C171.34628143 349.35131989 170.3453949 349.35116882 169.31417847 349.35101318 C167.68912888 349.33552933 167.68912888 349.33552933 166.03125 349.31973267 C164.92427765 349.31690277 163.8173053 349.31407288 162.67678833 349.31115723 C159.13077113 349.29993536 155.58500375 349.27482707 152.0390625 349.24942017 C149.63932656 349.23939296 147.23958667 349.23026666 144.83984375 349.22207642 C138.94783099 349.19998949 133.05596459 349.16649223 127.1640625 349.12442017 C126.68799561 347.99689331 126.21192871 346.86936646 125.72143555 345.70767212 C125.40161209 344.95019684 125.08178864 344.19272156 124.75227356 343.41229248 C124.01983769 341.67757323 123.2874058 339.9428523 122.55497742 338.20812988 C120.45617649 333.23723562 118.35730003 328.26637327 116.25830078 323.29556274 C111.92724019 313.03861436 107.59705761 302.78129773 103.26953125 292.52285767 C101.69286784 288.78581118 100.11603884 285.04883461 98.5390625 281.31192017 C98.14768097 280.38446991 97.75629944 279.45701965 97.35305786 278.50146484 C91.33710276 264.2479719 85.29295945 250.00664514 79.23434448 235.77124023 C72.48618024 219.91318282 65.80836978 204.02624805 59.1640625 188.12442017 C56.51911252 198.11657024 54.46330643 208.19832644 52.44287109 218.32974243 C52.07977309 220.13947978 51.71641853 221.94916567 51.35282898 223.75880432 C50.57530675 227.63138748 49.7995473 231.50431793 49.02518845 235.37753487 C47.80106083 241.5002163 46.57276515 247.62205708 45.34390259 253.74378967 C42.9604297 265.62030809 40.58121264 277.4976771 38.20240021 289.3751297 C35.16761533 304.52664531 32.13071567 319.67773633 29.09035933 334.82813495 C27.86863955 340.91679459 26.64891585 347.0058497 25.43075156 353.09522164 C24.67472038 356.87263374 23.91713754 360.64973344 23.15914345 364.42675209 C22.80734745 366.18144165 22.45621451 367.93626429 22.10578346 369.69122696 C21.62853447 372.08085725 21.14895782 374.4700088 20.66879272 376.85905457 C20.52978684 377.55806509 20.39078095 378.25707562 20.24756277 378.97726828 C19.6847031 381.76707028 19.06540597 384.42038975 18.1640625 387.12442017 C-15.4959375 387.12442017 -49.1559375 387.12442017 -83.8359375 387.12442017 C-73.68423425 335.76702645 -73.68423425 335.76702645 -70.15380859 317.95840454 C-69.79042267 316.12536286 -69.79042267 316.12536286 -69.41969562 314.25529003 C-59.64641676 264.96464282 -49.80074196 215.68837497 -39.95147896 166.41286469 C-39.31066428 163.20685442 -38.66985553 160.00084296 -38.02905273 156.79483032 C-37.8701139 155.99964967 -37.71117506 155.20446901 -37.54741989 154.38519198 C-34.91816161 141.23042995 -32.29222306 128.07500727 -29.66747186 114.91934529 C-26.93167586 101.20739006 -24.19301789 87.49600895 -21.45149773 73.78519702 C-19.92791858 66.16514605 -18.40558428 58.54485119 -16.88652992 50.92389679 C-15.6097137 44.51825656 -14.33034216 38.11313377 -13.04749683 31.70869812 C-12.39517013 28.4516285 -11.74452957 25.19423773 -11.09637642 21.93633461 C-10.39629111 18.41841862 -9.69154891 14.90146828 -8.98554993 11.38473511 C-8.6777067 9.82906511 -8.6777067 9.82906511 -8.36364442 8.24196744 C-8.08132849 6.84325914 -8.08132849 6.84325914 -7.79330921 5.4162941 C-7.63137791 4.6056608 -7.46944662 3.79502751 -7.30260831 2.95982957 C-6.29189765 -1.01528052 -3.61371124 0.00654801 0 0 Z M553.1640625 280.12442017 C550.29208255 294.28372806 547.42346306 308.44371316 544.55873108 322.60448933 C543.22855994 329.17940669 541.89729822 335.75409973 540.56347656 342.32827759 C539.2771359 348.66898995 537.99361247 355.01026655 536.71206665 361.35194969 C536.22186237 363.77513258 535.73063155 366.19810803 535.2383728 368.6208744 C534.55075336 372.00603958 533.86673931 375.39191419 533.18359375 378.77798462 C532.9778775 379.78642929 532.77216125 380.79487396 532.56021118 381.83387756 C532.37509979 382.75514435 532.1899884 383.67641113 531.99926758 384.62559509 C531.75591423 385.82715225 531.75591423 385.82715225 531.50764465 387.05298328 C531.08224702 389.26772465 531.08224702 389.26772465 531.1640625 392.12442017 C541.20527726 392.19436192 551.24643272 392.24745344 561.28784275 392.27985668 C565.95199334 392.29541957 570.61597556 392.31648334 575.2800293 392.35073853 C579.7928778 392.38367046 584.30556579 392.4013434 588.81852531 392.4090519 C590.52825378 392.41453539 592.23797486 392.42524043 593.94763374 392.44161034 C616.42436792 392.64798977 637.62941866 388.3544243 654.4765625 372.31192017 C667.85048017 358.23857416 670.69141311 341.3454204 670.44140625 322.60879517 C670.22378064 316.22944148 669.05394189 310.84076466 666.1640625 305.12442017 C665.76316406 304.32133423 665.36226562 303.51824829 664.94921875 302.69082642 C659.04735391 292.54646163 648.09232501 286.3190265 637.03125 283.25723267 C625.62985657 280.47963102 614.75480169 279.98200388 603.06640625 280.02676392 C601.62195383 280.02863264 600.17750077 280.03005439 598.73304749 280.03105164 C594.96019696 280.03484108 591.18738589 280.04464019 587.41455078 280.05575562 C583.55306532 280.0660472 579.69157339 280.07056574 575.83007812 280.07559204 C568.27472174 280.08626622 560.71939768 280.10329889 553.1640625 280.12442017 Z " fill="#FEFEFE" transform="translate(83.8359375,-0.124420166015625)"/>
<path d="M0 0 C3.56388972 3.02390643 3.97678018 4.87851518 4.4375 9.5625 C4.28723229 15.76971221 0.7046514 19.94945661 -2.9375 24.75 C-1.90157715 24.84498779 -0.8656543 24.93997559 0.20166016 25.0378418 C39.39160125 28.67873255 39.39160125 28.67873255 57.0625 33.75 C57.82256348 33.95818359 58.58262695 34.16636719 59.36572266 34.38085938 C77.05164468 39.30730005 94.04840154 47.84218717 108.0625 59.75 C108.990625 60.51699219 109.91875 61.28398437 110.875 62.07421875 C132.91862118 81.08684202 143.57255496 107.65857454 146.75 136.125 C149.78001975 178.4821511 139.2482607 220.27722818 111.51953125 253.0078125 C78.23485482 290.1554164 30.1858586 308.23871193 -18.9375 311.75 C-26.95638421 312.07622073 -34.98422125 311.98484697 -43.0078125 311.9453125 C-45.26895013 311.94157224 -47.5300894 311.93873007 -49.79122925 311.93673706 C-55.67979581 311.92918027 -61.56826028 311.9096022 -67.45678711 311.8873291 C-73.49070862 311.86669717 -79.52464697 311.85769863 -85.55859375 311.84765625 C-97.35160682 311.8263471 -109.14454485 311.79230992 -120.9375 311.75 C-121.04805222 312.36531082 -121.15860443 312.98062164 -121.27250671 313.61457825 C-125.12462967 334.95321451 -129.41818265 356.19195866 -133.75 377.4375 C-136.121875 389.090625 -138.49375 400.74375 -140.9375 412.75 C-177.5675 412.75 -214.1975 412.75 -251.9375 412.75 C-233.50489825 319.51843461 -233.50489825 319.51843461 -225.7109375 280.65625 C-225.19984687 278.10682425 -224.6887689 275.55739597 -224.17770386 273.00796509 C-221.94433182 261.86873821 -219.70916065 250.72988175 -217.46750069 239.59231949 C-216.54265637 234.99452818 -215.62007997 230.39628381 -214.69804764 225.79792786 C-214.26738234 223.65294969 -213.83567479 221.5081805 -213.40287399 219.3636322 C-212.81252623 216.4380874 -212.2256657 213.51186403 -211.63964844 210.58544922 C-211.46530966 209.72610968 -211.29097088 208.86677013 -211.11134911 207.98139 C-210.48851813 204.85656119 -209.9375 201.94502922 -209.9375 198.75 C-211.3915625 199.94882812 -211.3915625 199.94882812 -212.875 201.171875 C-220.45852707 207.39481967 -228.12288158 213.45621485 -236.00390625 219.29785156 C-240.56193863 222.68744303 -245.0207483 226.17865124 -249.4375 229.75 C-255.11685508 234.33860322 -260.89932764 238.76029836 -266.75708008 243.11816406 C-271.76301798 246.8496117 -276.70519365 250.65584443 -281.625 254.5 C-304.43262799 272.30680045 -327.61107893 289.63038673 -350.9375 306.75 C-350.83614746 307.3076001 -350.73479492 307.8652002 -350.63037109 308.43969727 C-347.07947267 328.56076605 -347.62021891 348.77606774 -359.2890625 366.45703125 C-359.83304688 367.21371094 -360.37703125 367.97039062 -360.9375 368.75 C-361.52273438 369.57886719 -362.10796875 370.40773438 -362.7109375 371.26171875 C-375.72548239 388.60559184 -394.15297303 396.60854365 -415.0625 399.625 C-429.33397406 400.5764316 -446.28640731 396.19618733 -457.82421875 387.69140625 C-459.94456961 386.46454414 -459.94456961 386.46454414 -462.2734375 387.50732422 C-464.90510352 388.73488837 -467.24633114 390.10342237 -469.67578125 391.69140625 C-470.57111572 392.27116211 -471.4664502 392.85091797 -472.38891602 393.44824219 C-473.33307373 394.06344727 -474.27723145 394.67865234 -475.25 395.3125 C-482.07621174 399.70921557 -488.91690104 404.02741917 -496 408 C-496.63526611 408.35779541 -497.27053223 408.71559082 -497.92504883 409.08422852 C-504.45155904 412.69273362 -509.46282688 414.63176725 -516.9375 413.75 C-519.83478868 412.5171112 -521.33433427 411.5254988 -523.25 409.0625 C-524.82022776 403.78082481 -524.66478333 400.20289474 -522.23828125 395.35546875 C-520.1117856 391.82686216 -517.57299844 388.88131003 -514.75 385.875 C-514.26877686 385.36106689 -513.78755371 384.84713379 -513.29174805 384.31762695 C-506.48908847 377.09057303 -499.49986888 370.18219936 -491.9375 363.75 C-490.68978996 362.68135633 -489.44241724 361.61231874 -488.1953125 360.54296875 C-487.58059082 360.01598389 -486.96586914 359.48899902 -486.33251953 358.94604492 C-485.87216309 358.5513501 -485.41180664 358.15665527 -484.9375 357.75 C-485.28683594 356.50605469 -485.63617188 355.26210938 -485.99609375 353.98046875 C-491.70869418 333.27723838 -492.04015369 314.68982556 -482.55859375 294.8671875 C-481.13223179 292.38757189 -479.60700164 290.07226887 -477.9375 287.75 C-477.35226562 286.92113281 -476.76703125 286.09226562 -476.1640625 285.23828125 C-463.88218784 268.87080338 -446.77594513 260.83629183 -427.0390625 257.21875 C-410.6589469 255.1051867 -393.14163096 260.91533236 -378.9375 268.75 C-378.4748877 268.36779297 -378.01227539 267.98558594 -377.53564453 267.59179688 C-368.02071258 259.73399965 -358.50383458 251.88692013 -348.78515625 244.28125 C-348.22135254 243.83982666 -347.65754883 243.39840332 -347.07666016 242.94360352 C-345.89574404 242.01910276 -344.71442548 241.09511584 -343.53271484 240.17163086 C-339.61547274 237.09981019 -335.75488307 233.96642868 -331.91259766 230.80151367 C-325.54349191 225.56108123 -319.10894552 220.72630173 -312.26953125 216.11328125 C-307.66779088 212.92618577 -303.40385284 209.31831904 -299.08984375 205.7578125 C-294.46523825 201.95398622 -289.75180082 198.31001152 -284.9375 194.75 C-277.40215218 189.16665732 -270.13619274 183.2899056 -262.88574219 177.34375 C-252.52031546 168.86436332 -241.96470309 160.64715331 -231.30175781 152.54638672 C-228.74925612 150.60697042 -226.19864985 148.66508183 -223.6484375 146.72265625 C-222.74826904 146.03880859 -221.84810059 145.35496094 -220.9206543 144.65039062 C-219.10237536 143.26138469 -217.29126064 141.86294867 -215.48754883 140.45507812 C-211.74134374 137.54456762 -208.11576815 134.73710028 -203.92578125 132.49609375 C-199.26659146 129.78133208 -195.88024905 127.39783109 -194.04719543 122.24946594 C-193.27071982 119.07463228 -192.63971784 115.89784974 -192.046875 112.68359375 C-191.80415359 111.46480026 -191.56143219 110.24600677 -191.31135559 108.99028015 C-190.78306463 106.32705842 -190.26254092 103.66353103 -189.75369263 100.99664307 C-188.91891589 96.63071587 -188.04620472 92.27284152 -187.16772461 87.91552734 C-185.92988809 81.7638861 -184.70062047 75.61063951 -183.48242188 69.45507812 C-183.25407229 68.3014317 -183.25407229 68.3014317 -183.02110958 67.12447929 C-182.23442675 63.14809127 -181.4491484 59.17142819 -180.66479492 55.19458008 C-179.88951439 51.26485683 -179.11055838 47.33587689 -178.3292942 43.4073391 C-178.03558379 41.92638984 -177.7433324 40.44515044 -177.45258141 38.96361732 C-177.05215592 36.92336797 -176.64710993 34.88408831 -176.2409668 32.8449707 C-176.01257614 31.68810257 -175.78418549 30.53123444 -175.5488739 29.33930969 C-174.9375 26.75 -174.9375 26.75 -173.9375 25.75 C-172.4399872 25.66381347 -170.93839258 25.64753667 -169.43844604 25.65907288 C-168.4658786 25.66373566 -167.49331116 25.66839844 -166.49127197 25.67320251 C-165.41504578 25.6831575 -164.33881958 25.69311249 -163.22998047 25.70336914 C-160.8926511 25.71615182 -158.55531983 25.72859157 -156.21798706 25.74073792 C-154.97030422 25.74865419 -153.72262138 25.75657047 -152.43712997 25.76472664 C-145.14632513 25.80309123 -137.85541425 25.79531066 -130.56452727 25.7947675 C-122.85239649 25.79503126 -115.14107753 25.81139182 -107.42919922 25.87670898 C-100.64542037 25.93403729 -93.86315808 25.93825191 -87.07919693 25.91201591 C-84.50141271 25.91078658 -81.92355395 25.92712069 -79.34600449 25.96193123 C-63.44369535 26.16518252 -53.11502204 25.31875003 -40.9375 14.75 C-39.11980807 13.55974258 -37.28270584 12.39761505 -35.4140625 11.2890625 C-34.60066406 10.79792969 -33.78726562 10.30679688 -32.94921875 9.80078125 C-32.16160156 9.33027344 -31.37398437 8.85976562 -30.5625 8.375 C-29.75167969 7.88128906 -28.94085937 7.38757813 -28.10546875 6.87890625 C-9.73580135 -4.14289419 -9.73580135 -4.14289419 0 0 Z M-81.9375 112.75 C-84.80947995 126.90930789 -87.67809944 141.06929299 -90.54283142 155.23006916 C-91.87300256 161.80498652 -93.20426428 168.37967956 -94.53808594 174.95385742 C-95.8244266 181.29456978 -97.10795003 187.63584638 -98.38949585 193.97752953 C-98.87970013 196.40071242 -99.37093095 198.82368787 -99.8631897 201.24645424 C-100.55080914 204.63161941 -101.23482319 208.01749403 -101.91796875 211.40356445 C-102.123685 212.41200912 -102.32940125 213.4204538 -102.54135132 214.4594574 C-102.72646271 215.38072418 -102.9115741 216.30199097 -103.10229492 217.25117493 C-103.34564827 218.45273208 -103.34564827 218.45273208 -103.59391785 219.67856312 C-104.01931548 221.89330449 -104.01931548 221.89330449 -103.9375 224.75 C-93.89628524 224.81994176 -83.85512978 224.87303328 -73.81371975 224.90543652 C-69.14956916 224.9209994 -64.48558694 224.94206318 -59.8215332 224.97631836 C-55.3086847 225.0092503 -50.79599671 225.02692323 -46.28303719 225.03463173 C-44.57330872 225.04011523 -42.86358764 225.05082027 -41.15392876 225.06719017 C-18.67719458 225.27356961 2.52785616 220.98000413 19.375 204.9375 C32.74891767 190.86415399 35.58985061 173.97100024 35.33984375 155.234375 C35.12221814 148.85502131 33.95237939 143.46634449 31.0625 137.75 C30.66160156 136.94691406 30.26070312 136.14382813 29.84765625 135.31640625 C23.94579141 125.17204146 12.99076251 118.94460633 1.9296875 115.8828125 C-9.47170593 113.10521085 -20.34676081 112.60758372 -32.03515625 112.65234375 C-33.47960867 112.65421247 -34.92406173 112.65563423 -36.36851501 112.65663147 C-40.14136554 112.66042091 -43.91417661 112.67022003 -47.68701172 112.68133545 C-51.54849718 112.69162704 -55.40998911 112.69614557 -59.27148438 112.70117188 C-66.82684076 112.71184606 -74.38216482 112.72887872 -81.9375 112.75 Z " fill="#FE0000" transform="translate(718.9375,167.25)"/>
<path d="M0 0 C3.56388972 3.02390643 3.97678018 4.87851518 4.4375 9.5625 C4.31893664 14.1187205 2.6597192 17.0976605 0.0625 20.75 C-0.515 21.575 -1.0925 22.4 -1.6875 23.25 C-4.14818656 25.98409618 -6.80267773 28.28026332 -9.59765625 30.6640625 C-12.31873029 33.08986139 -14.88062897 35.65439517 -17.4375 38.25 C-21.11862365 41.97631392 -24.87047751 45.54858468 -28.85546875 48.94921875 C-31.36903578 51.12324202 -33.80526229 53.37390488 -36.25 55.625 C-40.76653837 59.74906676 -45.42883016 63.62936865 -50.1875 67.46875 C-53.01849578 69.81718968 -55.73133598 72.25909902 -58.4375 74.75 C-62.82778569 78.78633055 -67.3492562 82.59030529 -71.98828125 86.3359375 C-75.35119025 89.08862328 -78.64666312 91.91196516 -81.9375 94.75 C-86.86764039 98.99554608 -91.84434949 103.17063105 -96.89453125 107.2734375 C-100.75573506 110.415932 -104.59636272 113.5830335 -108.4375 116.75 C-118.84384424 125.32400168 -129.28506358 133.85402127 -139.75390625 142.3515625 C-142.51461254 144.59282603 -145.27228 146.83774204 -148.02734375 149.0859375 C-154.87716753 154.67177617 -161.75623289 160.21250259 -168.71923828 165.65673828 C-173.61985659 169.49025286 -178.47878864 173.37409982 -183.33007812 177.26977539 C-186.37302465 179.71004507 -189.42417618 182.13751004 -192.50390625 184.53125 C-198.40206599 189.11624385 -204.18136677 193.77675743 -209.8125 198.6875 C-215.32220942 203.48313126 -221.03436267 207.91253142 -226.90795898 212.25195312 C-231.47892026 215.63467341 -235.952266 219.11344329 -240.375 222.6875 C-246.30598087 227.47508398 -252.32180717 232.13691817 -258.38818359 236.75146484 C-263.62152577 240.73477098 -268.81703004 244.76393061 -274 248.8125 C-280.27540587 253.70901409 -286.60120617 258.52940517 -292.97998047 263.2902832 C-297.71910494 266.82914877 -302.42979435 270.40308807 -307.125 274 C-307.81770996 274.53028809 -308.51041992 275.06057617 -309.22412109 275.60693359 C-312.3197359 277.97731015 -315.41453801 280.34873794 -318.5078125 282.72216797 C-329.19165958 290.91610244 -339.90173273 299.03423667 -350.9375 306.75 C-350.83614746 307.3076001 -350.73479492 307.8652002 -350.63037109 308.43969727 C-347.07947267 328.56076605 -347.62021891 348.77606774 -359.2890625 366.45703125 C-359.83304688 367.21371094 -360.37703125 367.97039062 -360.9375 368.75 C-361.52273438 369.57886719 -362.10796875 370.40773438 -362.7109375 371.26171875 C-375.72548239 388.60559184 -394.15297303 396.60854365 -415.0625 399.625 C-429.33397406 400.5764316 -446.28640731 396.19618733 -457.82421875 387.69140625 C-459.94456961 386.46454414 -459.94456961 386.46454414 -462.2734375 387.50732422 C-464.90510352 388.73488837 -467.24633114 390.10342237 -469.67578125 391.69140625 C-470.57111572 392.27116211 -471.4664502 392.85091797 -472.38891602 393.44824219 C-473.33307373 394.06344727 -474.27723145 394.67865234 -475.25 395.3125 C-482.07621174 399.70921557 -488.91690104 404.02741917 -496 408 C-496.63526611 408.35779541 -497.27053223 408.71559082 -497.92504883 409.08422852 C-504.45155904 412.69273362 -509.46282688 414.63176725 -516.9375 413.75 C-519.83478868 412.5171112 -521.33433427 411.5254988 -523.25 409.0625 C-524.82022776 403.78082481 -524.66478333 400.20289474 -522.23828125 395.35546875 C-520.1117856 391.82686216 -517.57299844 388.88131003 -514.75 385.875 C-514.26877686 385.36106689 -513.78755371 384.84713379 -513.29174805 384.31762695 C-506.48908847 377.09057303 -499.49986888 370.18219936 -491.9375 363.75 C-490.68978996 362.68135633 -489.44241724 361.61231874 -488.1953125 360.54296875 C-487.58059082 360.01598389 -486.96586914 359.48899902 -486.33251953 358.94604492 C-485.87216309 358.5513501 -485.41180664 358.15665527 -484.9375 357.75 C-485.28683594 356.50605469 -485.63617188 355.26210938 -485.99609375 353.98046875 C-491.70869418 333.27723838 -492.04015369 314.68982556 -482.55859375 294.8671875 C-481.13223179 292.38757189 -479.60700164 290.07226887 -477.9375 287.75 C-477.35226562 286.92113281 -476.76703125 286.09226562 -476.1640625 285.23828125 C-463.88218784 268.87080338 -446.77594513 260.83629183 -427.0390625 257.21875 C-410.6589469 255.1051867 -393.14163096 260.91533236 -378.9375 268.75 C-378.4748877 268.36779297 -378.01227539 267.98558594 -377.53564453 267.59179688 C-368.02071258 259.73399965 -358.50383458 251.88692013 -348.78515625 244.28125 C-348.22135254 243.83982666 -347.65754883 243.39840332 -347.07666016 242.94360352 C-345.89574404 242.01910276 -344.71442548 241.09511584 -343.53271484 240.17163086 C-339.61547274 237.09981019 -335.75488307 233.96642868 -331.91259766 230.80151367 C-325.54349191 225.56108123 -319.10894552 220.72630173 -312.26953125 216.11328125 C-307.66779088 212.92618577 -303.40385284 209.31831904 -299.08984375 205.7578125 C-294.46523825 201.95398622 -289.75180082 198.31001152 -284.9375 194.75 C-277.40215218 189.16665732 -270.13619274 183.2899056 -262.88574219 177.34375 C-252.52031546 168.86436332 -241.96470309 160.64715331 -231.30175781 152.54638672 C-228.74925612 150.60697042 -226.19864985 148.66508183 -223.6484375 146.72265625 C-222.74826904 146.03880859 -221.84810059 145.35496094 -220.9206543 144.65039062 C-219.10237536 143.26138469 -217.29126064 141.86294867 -215.48754883 140.45507812 C-211.74134374 137.54456762 -208.11576815 134.73710028 -203.92578125 132.49609375 C-199.26659146 129.78133208 -195.88024905 127.39783109 -194.04719543 122.24946594 C-193.27071982 119.07463228 -192.63971784 115.89784974 -192.046875 112.68359375 C-191.80415359 111.46480026 -191.56143219 110.24600677 -191.31135559 108.99028015 C-190.78306463 106.32705842 -190.26254092 103.66353103 -189.75369263 100.99664307 C-188.91891589 96.63071587 -188.04620472 92.27284152 -187.16772461 87.91552734 C-185.92988809 81.7638861 -184.70062047 75.61063951 -183.48242188 69.45507812 C-183.25407229 68.3014317 -183.25407229 68.3014317 -183.02110958 67.12447929 C-182.23442675 63.14809127 -181.4491484 59.17142819 -180.66479492 55.19458008 C-179.88951439 51.26485683 -179.11055838 47.33587689 -178.3292942 43.4073391 C-178.03558379 41.92638984 -177.7433324 40.44515044 -177.45258141 38.96361732 C-177.05215592 36.92336797 -176.64710993 34.88408831 -176.2409668 32.8449707 C-176.01257614 31.68810257 -175.78418549 30.53123444 -175.5488739 29.33930969 C-174.9375 26.75 -174.9375 26.75 -173.9375 25.75 C-172.4399872 25.66381347 -170.93839258 25.64753667 -169.43844604 25.65907288 C-168.4658786 25.66373566 -167.49331116 25.66839844 -166.49127197 25.67320251 C-165.41504578 25.6831575 -164.33881958 25.69311249 -163.22998047 25.70336914 C-160.8926511 25.71615182 -158.55531983 25.72859157 -156.21798706 25.74073792 C-154.97030422 25.74865419 -153.72262138 25.75657047 -152.43712997 25.76472664 C-145.14632513 25.80309123 -137.85541425 25.79531066 -130.56452727 25.7947675 C-122.85239649 25.79503126 -115.14107753 25.81139182 -107.42919922 25.87670898 C-100.64542037 25.93403729 -93.86315808 25.93825191 -87.07919693 25.91201591 C-84.50141271 25.91078658 -81.92355395 25.92712069 -79.34600449 25.96193123 C-63.44369535 26.16518252 -53.11502204 25.31875003 -40.9375 14.75 C-39.11980807 13.55974258 -37.28270584 12.39761505 -35.4140625 11.2890625 C-34.60066406 10.79792969 -33.78726562 10.30679688 -32.94921875 9.80078125 C-32.16160156 9.33027344 -31.37398437 8.85976562 -30.5625 8.375 C-29.75167969 7.88128906 -28.94085937 7.38757813 -28.10546875 6.87890625 C-9.73580135 -4.14289419 -9.73580135 -4.14289419 0 0 Z " fill="#020000" transform="translate(718.9375,167.25)"/>
<path d="M0 0 C-4.19875283 12.27161266 -19.20231843 23.93410164 -28.953125 32.234375 C-31.45714849 34.3943342 -33.87997698 36.63487993 -36.3125 38.875 C-40.82903837 42.99906676 -45.49133016 46.87936865 -50.25 50.71875 C-53.08099578 53.06718968 -55.79383598 55.50909902 -58.5 58 C-62.87119657 62.0192782 -67.37512873 65.80033498 -71.99609375 69.52734375 C-75.49665829 72.40882275 -78.90290779 75.38708264 -82.3125 78.375 C-87.67862062 83.0672104 -93.16134821 87.54660325 -98.80004883 91.90576172 C-102.97637658 95.1506867 -107.00720138 98.53245248 -111 102 C-116.15389331 106.47438559 -121.42761797 110.74344705 -126.8203125 114.92578125 C-130.79871481 118.0230609 -134.67101459 121.2202543 -138.5 124.5 C-143.42139636 128.71120697 -148.44796744 132.75563237 -153.55859375 136.734375 C-158.08704089 140.26536682 -162.55212922 143.86816895 -167 147.5 C-173.70144107 152.96668989 -180.47085627 158.33844463 -187.28662109 163.66162109 C-190.17322836 165.91644882 -193.05600209 168.17614792 -195.9375 170.4375 C-196.51185791 170.88810791 -197.08621582 171.33871582 -197.67797852 171.80297852 C-201.99480174 175.19567067 -206.281515 178.62475595 -210.5625 182.0625 C-215.71444235 186.19755936 -220.90901077 190.26852363 -226.15649414 194.28149414 C-230.13002061 197.32221659 -234.07066666 200.40242335 -238 203.5 C-242.92099125 207.37734932 -247.86654623 211.21995648 -252.83959961 215.03051758 C-255.94192681 217.40999931 -259.03310049 219.80283497 -262.11328125 222.2109375 C-270.84803811 229.03824913 -279.64876533 235.76226273 -288.53515625 242.39111328 C-294.09756826 246.54893015 -299.59689218 250.77843418 -305.0625 255.0625 C-312.01783598 260.51109008 -319.08076554 265.79409844 -326.21557617 271.00512695 C-332.02239051 275.25208224 -337.70979291 279.62627298 -343.3359375 284.109375 C-345.8495065 285.89319816 -348.09570545 287.00725932 -351 288 C-351.42410156 287.29875 -351.84820312 286.5975 -352.28515625 285.875 C-356.07196745 279.74952078 -360.05903093 274.24133194 -365 269 C-363.46078927 264.78178326 -360.34381024 262.65841488 -356.875 260.0625 C-355.60050794 259.08601026 -354.32711296 258.10808737 -353.0546875 257.12890625 C-352.38920898 256.61859863 -351.72373047 256.10829102 -351.03808594 255.58251953 C-347.64412215 252.9471969 -344.32463457 250.22188285 -341 247.5 C-334.30091865 242.03364624 -327.53212032 236.66441684 -320.71777344 231.34277344 C-317.80728372 229.06766067 -314.90405504 226.7833163 -312 224.5 C-310.83336721 223.58329022 -309.66670056 222.66662352 -308.5 221.75 C-307.9225 221.29625 -307.345 220.8425 -306.75 220.375 C-305 219 -303.25 217.625 -301.5 216.25 C-300.92282227 215.7964917 -300.34564453 215.3429834 -299.75097656 214.87573242 C-298.58109984 213.95656687 -297.41117777 213.03745905 -296.24121094 212.1184082 C-293.37328843 209.86543906 -290.5060901 207.61156277 -287.640625 205.35546875 C-278.89301592 198.47058882 -270.11000358 191.63189182 -261.31884766 184.80273438 C-259.02751573 183.02139147 -256.73806227 181.23766377 -254.44921875 179.453125 C-245.03543685 172.11580791 -235.58211545 164.83307542 -226.09130859 157.59570312 C-223.33571062 155.49313619 -220.58322965 153.38651077 -217.83081055 151.27978516 C-214.99014803 149.10604341 -212.14789455 146.93438628 -209.30566406 144.76269531 C-207.70813556 143.54137429 -206.11116823 142.31931901 -204.51464844 141.09667969 C-194.46551876 133.4013318 -184.37897646 125.76928715 -174.16674805 118.29150391 C-168.20061465 113.91249709 -162.31144713 109.43917987 -156.4375 104.9375 C-148.54007896 98.89047232 -140.54484672 93.00534483 -132.4609375 87.2109375 C-127.77581618 83.84964737 -123.13636363 80.42808773 -118.5 77 C-104.48182602 66.64947944 -90.34473957 56.48428773 -76.046875 46.5234375 C-72.75552119 44.23011527 -69.47457006 41.92318998 -66.203125 39.6015625 C-47.36636526 26.25989408 -28.16429256 13.26538105 -8 2 C-7.27554687 1.58621094 -6.55109375 1.17242187 -5.8046875 0.74609375 C-4 0 -4 0 0 0 Z " fill="#FC0000" transform="translate(713,176)"/>
<path d="M0 0 C12.61801397 8.23448314 20.39594681 19.71894471 23.8125 34.375 C25.14879774 50.20857438 21.95815389 63.57112372 11.625 76.0078125 C5.76049542 82.30463633 -0.27699212 86.09159741 -8.1875 89.375 C-8.90164063 89.71402344 -9.61578125 90.05304688 -10.3515625 90.40234375 C-20.38945925 94.6074086 -33.55285044 93.52868905 -43.48828125 89.625 C-57.20044837 83.27493708 -66.35715241 74.421712 -72.1875 60.375 C-72.52652344 59.66085937 -72.86554688 58.94671875 -73.21484375 58.2109375 C-77.4199086 48.17304075 -76.34118905 35.00964956 -72.4375 25.07421875 C-65.68287292 10.48844591 -55.9893847 1.37070013 -41.1875 -4.625 C-27.22868012 -9.3359041 -12.74881278 -6.97913235 0 0 Z " fill="#FDFDFD" transform="translate(325.1875,452.625)"/>
<path d="M0 0 C0.86187644 0.00092179 1.72375288 0.00184359 2.61174679 0.00279331 C4.09049282 0.00073132 4.09049282 0.00073132 5.59911251 -0.00137234 C6.68955364 0.00222294 7.77999477 0.00581821 8.90347958 0.00952244 C10.04479336 0.00937641 11.18610714 0.00923038 12.36200619 0.00907993 C16.15506512 0.00977965 19.94807565 0.01757476 23.74112606 0.02539158 C26.36286549 0.02725555 28.98460527 0.02867955 31.60634518 0.0296793 C37.81473936 0.03279232 44.02311602 0.04100531 50.23150247 0.05102879 C57.29789422 0.06219084 64.3642868 0.06770061 71.43068516 0.07272422 C85.97037244 0.08318795 100.51004588 0.10078682 115.04971981 0.12304783 C112.32481842 2.89945766 109.67893413 5.20541229 106.44425106 7.37304783 C105.55189754 7.97520115 104.65954403 8.57735447 103.7401495 9.19775486 C102.7904327 9.83310154 101.8407159 10.46844822 100.86221981 11.12304783 C98.86280646 12.47355174 96.86411545 13.82512565 94.86612606 15.17773533 C93.87757626 15.8464365 92.88902645 16.51513767 91.87052059 17.20410252 C73.39424615 29.77321426 55.409993 43.07888716 37.44083309 56.35693455 C34.26983557 58.6990824 31.09608 61.03747468 27.92203426 63.37548923 C26.34091329 64.54021743 24.76002118 65.70525638 23.17935848 66.87060642 C19.19952422 69.80458203 15.21704959 72.73484754 11.22940731 75.65820408 C9.62767249 76.83375057 8.02610883 78.00953032 6.42471981 79.18554783 C5.64814022 79.75547459 4.87156063 80.32540134 4.07144833 80.91259861 C0.06371983 83.86451642 -3.91325038 86.84990965 -7.85262394 89.89257908 C-8.63621281 90.49771336 -9.41980167 91.10284763 -10.22713566 91.72631931 C-11.72061635 92.88399816 -13.21068803 94.04609194 -14.69686222 95.21313572 C-15.69048771 95.98451878 -15.69048771 95.98451878 -16.70418644 96.77148533 C-17.28498966 97.22700779 -17.86579288 97.68253025 -18.46419621 98.15185642 C-19.95028019 99.12304783 -19.95028019 99.12304783 -21.95028019 99.12304783 C-20.40322912 88.094655 -18.25911126 77.21029662 -16.07137394 66.29492283 C-15.69534423 64.4102054 -15.3194566 62.52545962 -14.94370365 60.64068699 C-14.1614449 56.72051965 -13.3770376 52.80078988 -12.59114933 48.88134861 C-11.58222564 43.84831872 -10.57947614 38.81408059 -9.57836151 33.77949238 C-8.80642119 29.90151371 -8.030931 26.02425153 -7.2543745 22.14719486 C-6.88278431 20.2893976 -6.51239347 18.43136003 -6.14321041 16.57308292 C-5.63001068 13.9923075 -5.11197109 11.41255108 -4.59261417 8.83300877 C-4.44038898 8.06221485 -4.2881638 7.29142094 -4.13132572 6.49726963 C-2.85002812 0.17981507 -2.85002812 0.17981507 0 0 Z " fill="#FD0000" transform="translate(546.9502801895142,192.87695217132568)"/>
<path d="M0 0 C2.89884686 2.73319846 5.38658173 5.41715612 7.67578125 8.68359375 C8.33380737 9.61836548 8.33380737 9.61836548 9.00512695 10.57202148 C9.33343506 11.04325439 9.66174316 11.5144873 10 12 C0.29788979 18.40959362 -9.41924999 24.77972984 -19.4375 30.6875 C-20.1277124 31.09661621 -20.8179248 31.50573242 -21.52905273 31.92724609 C-30.2287501 37 -30.2287501 37 -35 37 C-31.03997135 22.91989814 -11.10429238 8.67522842 0 0 Z " fill="#F70000" transform="translate(240,534)"/>
</svg>
